<svg width="143" height="123" viewBox="0 0 143 123" fill="none" xmlns="http://www.w3.org/2000/svg">
<path d="M71.5 15.375V84.5625H83.4167V35.875L116.188 43.5625V25.625L71.5 15.375Z" fill="url(#paint0_linear_20_2172)"/>
<path d="M56.6041 61.5C53.0831 61.5 49.5965 62.0965 46.3434 63.2555C43.0904 64.4145 40.1346 66.1133 37.6448 68.2549C35.1551 70.3964 33.1801 72.9388 31.8326 75.7369C30.4852 78.5349 29.7916 81.5339 29.7916 84.5625C29.7916 87.5911 30.4852 90.5901 31.8326 93.3881C33.1801 96.1862 35.1551 98.7286 37.6448 100.87C40.1346 103.012 43.0904 104.71 46.3434 105.869C49.5965 107.028 53.0831 107.625 56.6041 107.625C60.1252 107.625 63.6118 107.028 66.8648 105.869C70.1179 104.71 73.0737 103.012 75.5634 100.87C78.0532 98.7286 80.0282 96.1862 81.3756 93.3881C82.7231 90.5901 83.4166 87.5911 83.4166 84.5625C83.4166 81.5339 82.7231 78.5349 81.3756 75.7369C80.0282 72.9388 78.0532 70.3964 75.5634 68.2549C73.0737 66.1133 70.1179 64.4145 66.8648 63.2555C63.6118 62.0965 60.1252 61.5 56.6041 61.5V61.5Z" fill="url(#paint1_linear_20_2172)"/>
<defs>
<linearGradient id="paint0_linear_20_2172" x1="93.8438" y1="15.375" x2="93.8438" y2="84.5625" gradientUnits="userSpaceOnUse">
<stop stop-color="#FCFF56"/>
<stop offset="0.0001" stop-color="#FF6A56"/>
<stop offset="1" stop-color="#FCF856"/>
</linearGradient>
<linearGradient id="paint1_linear_20_2172" x1="56.6041" y1="61.5" x2="56.6041" y2="107.625" gradientUnits="userSpaceOnUse">
<stop stop-color="#FCFF56"/>
<stop offset="0.0001" stop-color="#FF6A56"/>
<stop offset="1" stop-color="#FCF856"/>
</linearGradient>
</defs>
</svg>
